<svg xmlns="http://www.w3.org/2000/svg" width="120" height="120" fill="none" xmlns:v="https://vecta.io/nano"><path fill="#fff" d="M0 0h120v120H0z"/><path d="M61.397 36.39l-.198-12.086c-.012-.72-.605-1.294-1.325-1.283s-1.295.605-1.283 1.326l.198 12.086c.012.72.605 1.294 1.325 1.283s1.294-.605 1.283-1.325zm-7.136.226l-3.539-6.656c-.338-.636-1.128-.877-1.764-.539l-.002.001c-.636.338-.878 1.128-.539 1.764l3.539 6.656c.338.636 1.128.877 1.764.539l.002-.001c.636-.338.877-1.128.539-1.764zm13.762 1.224l3.539-6.656c.338-.636.097-1.426-.539-1.764l-.002-.001c-.636-.338-1.426-.097-1.764.539l-3.539 6.656c-.338.636-.097 1.426.539 1.764l.002.001c.636.338 1.426.097 1.764-.539z" fill="#91a3ba"/><path d="M56.958 87.701l-4.052-14.853c-.998-3.624-.426-7.397 1.496-10L69.405 42.56c2.182-2.953 5.733-3.895 9.105-2.419l22.669 9.928c2.928 1.292 5.289 4.24 6.267 7.813l4.075 14.928c1.588 5.828-.901 11.584-5.559 12.856L68.28 95.948c-4.661 1.272-9.731-2.419-11.322-8.247z" fill="#ff3c74"/><path fill-rule="evenodd" d="M50.597 42.56l15.01 20.287c1.913 2.603 2.494 6.377 1.496 10l-4.057 14.861c-1.596 5.828-6.658 9.519-11.322 8.247l-37.682-10.29C9.382 84.394 6.89 78.638 8.479 72.81l4.075-14.933c.977-3.569 3.342-6.521 6.277-7.808l22.659-9.928c3.372-1.476 6.923-.534 9.107 2.419z" fill="#87db78"/></svg>